[h264 @ 0x560e5690b3c0] Reinit context to 1280x720, pix_fmt: yuv420p
Input #0, mov,mp4,m4a,3gp,3g2,mj2, from '/var/www/html/project/media/video/original/Fermo_incendio_sterpaglie.mp4':
  Metadata:
    major_brand     : mp42
    minor_version   : 1
    compatible_brands: isommp41mp42
    creation_time   : 2022-06-17T20:00:45.000000Z
  Duration: 00:00:54.52, start: 0.000000, bitrate: 5164 kb/s
    Stream #0:0(eng): Audio: aac (LC) (mp4a / 0x6134706D), 44100 Hz, stereo, fltp, 100 kb/s (default)
    Metadata:
      creation_time   : 2022-06-17T20:00:45.000000Z
      handler_name    : Core Media Audio
    Stream #0:1(und): Video: h264 (High), 1 reference frame (avc1 / 0x31637661), yuv420p(tv, bt709, progressive, left), 1280x720 [SAR 1:1 DAR 16:9], 5028 kb/s, 25 fps, 25 tbr, 25k tbn, 50k tbc (default)
    Metadata:
      creation_time   : 2022-06-17T20:00:45.000000Z
      handler_name    : Core Media Video
Input #1, png_pipe, from '/var/www/html/project/static/images/templates/logo.png':
  Duration: N/A, bitrate: N/A
    Stream #1:0: Video: png, 1 reference frame, rgba(pc), 1920x1080 [SAR 2835:2835 DAR 16:9], 25 tbr, 25 tbn, 25 tbc
[h264 @ 0x560e56968e40] Reinit context to 1280x720, pix_fmt: yuv420p
Input #2, mov,mp4,m4a,3gp,3g2,mj2, from '/var/www/html/project/static/images/templates/Codino.mp4':
  Metadata:
    major_brand     : mp42
    minor_version   : 1
    compatible_brands: isommp41mp42
    creation_time   : 2021-07-11T07:02:58.000000Z
  Duration: 00:00:02.00, start: 0.000000, bitrate: 1007 kb/s
    Stream #2:0(ita): Audio: aac (LC) (mp4a / 0x6134706D), 44100 Hz, stereo, fltp, 102 kb/s (default)
    Metadata:
      creation_time   : 2021-07-11T07:02:58.000000Z
      handler_name    : Core Media Audio
    Stream #2:1(und): Video: h264 (High), 1 reference frame (avc1 / 0x31637661), yuv420p(tv, bt709, progressive, left), 1280x720 [SAR 1:1 DAR 16:9], 813 kb/s, 25 fps, 25 tbr, 25k tbn, 50k tbc (default)
    Metadata:
      creation_time   : 2021-07-11T07:02:58.000000Z
      handler_name    : Core Media Video
[Parsed_scale_0 @ 0x560e56923600] w:1280 h:720 flags:'bilinear' interl:0
[Parsed_scale_2 @ 0x560e5694e2c0] w:1280 h:720 flags:'bilinear' interl:0
[Parsed_scale_4 @ 0x560e5694bbc0] w:1280 h:720 flags:'bilinear' interl:0
Stream mapping:
  Stream #0:0 (aac) -> concat:in0:a0
  Stream #0:1 (h264) -> scale
  Stream #1:0 (png) -> scale
  Stream #2:0 (aac) -> concat:in1:a0
  Stream #2:1 (h264) -> scale
  concat:out:v0 -> Stream #0:0 (libx264)
  concat:out:a0 -> Stream #0:1 (aac)
Press [q] to stop, [?] for help
[h264 @ 0x560e56922800] Reinit context to 1280x720, pix_fmt: yuv420p
[h264 @ 0x560e56c86540] Reinit context to 1280x720, pix_fmt: yuv420p
[Parsed_scale_0 @ 0x560e57cc45c0] w:1280 h:720 flags:'bilinear' interl:0
[Parsed_scale_2 @ 0x560e57ccd140] w:1280 h:720 flags:'bilinear' interl:0
[Parsed_scale_4 @ 0x560e57cce0c0] w:1280 h:720 flags:'bilinear' interl:0
[graph 0 input from stream 0:1 @ 0x560e57cd2800] w:1280 h:720 pixfmt:yuv420p tb:1/25000 fr:25/1 sar:1/1 sws_param:flags=2
[graph 0 input from stream 1:0 @ 0x560e57cd3880] w:1920 h:1080 pixfmt:rgba tb:1/25 fr:25/1 sar:2835/2835 sws_param:flags=2
[graph 0 input from stream 2:1 @ 0x560e57cd4900] w:1280 h:720 pixfmt:yuv420p tb:1/25000 fr:25/1 sar:1/1 sws_param:flags=2
[graph_0_in_0_0 @ 0x560e57cd58c0] tb:1/44100 samplefmt:fltp samplerate:44100 chlayout:0x3
[graph_0_in_2_0 @ 0x560e57cd6a00] tb:1/44100 samplefmt:fltp samplerate:44100 chlayout:0x3
[Parsed_scale_0 @ 0x560e57cc45c0] w:1280 h:720 fmt:yuv420p sar:1/1 -> w:1280 h:720 fmt:yuv420p sar:1/1 flags:0x2
[Parsed_setsar_1 @ 0x560e57cc4e40] w:1280 h:720 sar:1/1 dar:16/9 -> sar:1/1 dar:16/9
[Parsed_scale_2 @ 0x560e57ccd140] w:1920 h:1080 fmt:rgba sar:2835/2835 -> w:1280 h:720 fmt:yuva420p sar:1/1 flags:0x2
[Parsed_setsar_3 @ 0x560e57ccd600] w:1280 h:720 sar:1/1 dar:16/9 -> sar:1/1 dar:16/9
[Parsed_overlay_6 @ 0x560e57ccf740] main w:1280 h:720 fmt:yuv420p overlay w:1280 h:720 fmt:yuva420p
[Parsed_overlay_6 @ 0x560e57ccf740] [framesync @ 0x560e57ccf868] Selected 1/25000 time base
[Parsed_overlay_6 @ 0x560e57ccf740] [framesync @ 0x560e57ccf868] Sync level 2
[Parsed_scale_4 @ 0x560e57cce0c0] w:1280 h:720 fmt:yuv420p sar:1/1 -> w:1280 h:720 fmt:yuv420p sar:1/1 flags:0x2
[Parsed_setsar_5 @ 0x560e57cceb80] w:1280 h:720 sar:1/1 dar:16/9 -> sar:1/1 dar:16/9
[libx264 @ 0x560e5694ac80] using SAR=1/1
[libx264 @ 0x560e5694ac80] using cpu capabilities: MMX2 SSE2Fast SSSE3 SSE4.2 AVX FMA3 BMI2 AVX2
[libx264 @ 0x560e5694ac80] profile High, level 3.1
[libx264 @ 0x560e5694ac80] 264 - core 155 r2917 0a84d98 - H.264/MPEG-4 AVC codec - Copyleft 2003-2018 - http://www.videolan.org/x264.html - options: cabac=1 ref=1 deblock=1:0:0 analyse=0x3:0x113 me=hex subme=2 psy=1 psy_rd=1.00:0.00 mixed_ref=0 me_range=16 chroma_me=1 trellis=0 8x8dct=1 cqm=0 deadzone=21,11 fast_pskip=1 chroma_qp_offset=0 threads=22 lookahead_threads=5 sliced_threads=0 nr=0 decimate=1 interlaced=0 bluray_compat=0 constrained_intra=0 bframes=3 b_pyramid=2 b_adapt=1 b_bias=0 direct=1 weightb=1 open_gop=0 weightp=1 keyint=250 keyint_min=25 scenecut=40 intra_refresh=0 rc_lookahead=10 rc=crf mbtree=1 crf=18.0 qcomp=0.60 qpmin=0 qpmax=69 qpstep=4 ip_ratio=1.40 aq=1:1.00
Output #0, mp4, to '/var/www/html/project/media/video/watermarks/Fermo_incendio_sterpaglie.mp4':
  Metadata:
    major_brand     : mp42
    minor_version   : 1
    compatible_brands: isommp41mp42
    encoder         : Lavf58.29.100
    Stream #0:0: Video: h264 (libx264), 1 reference frame (avc1 / 0x31637661), yuv420p(progressive), 1280x720 [SAR 1:1 DAR 16:9], q=-1--1, 25 fps, 12800 tbn, 25 tbc (default)
    Metadata:
      encoder         : Lavc58.54.100 libx264
    Side data:
      cpb: bitrate max/min/avg: 0/0/0 buffer size: 0 vbv_delay: -1
    Stream #0:1: Audio: aac (LC) (mp4a / 0x6134706D), 44100 Hz, stereo, fltp, delay 1024, 128 kb/s (default)
    Metadata:
      encoder         : Lavc58.54.100 aac
[Parsed_concat_7 @ 0x560e57cd0880] EOF on in0:a0, 1 streams left in segment.
[Parsed_overlay_6 @ 0x560e57ccf740] [framesync @ 0x560e57ccf868] Sync level 0
[Parsed_concat_7 @ 0x560e57cd0880] EOF on in0:v0, 0 streams left in segment.
[Parsed_concat_7 @ 0x560e57cd0880] Segment finished at pts=54542222
[Parsed_concat_7 @ 0x560e57cd0880] EOF on in1:a0, 1 streams left in segment.
[Parsed_concat_7 @ 0x560e57cd0880] EOF on in1:v0, 0 streams left in segment.
[Parsed_concat_7 @ 0x560e57cd0880] Segment finished at pts=56560907
No more output streams to write to, finishing.
frame= 1413 fps=181 q=-1.0 Lsize=   40730kB time=00:00:56.56 bitrate=5898.9kbits/s speed=7.26x    
[AVIOContext @ 0x560e56908440] Statistics: 0 seeks, 16 writeouts
video:39806kB audio:878kB subtitle:0kB other streams:0kB global headers:0kB muxing overhead: 0.114010%
Input file #0 (/var/www/html/project/media/video/original/Fermo_incendio_sterpaglie.mp4):
  Input stream #0:0 (audio): 2351 packets read (683931 bytes); 2349 frames decoded (2405312 samples); 
  Input stream #0:1 (video): 1363 packets read (34271804 bytes); 1363 frames decoded; 
  Total: 3714 packets (34955735 bytes) demuxed
Input file #1 (/var/www/html/project/static/images/templates/logo.png):
  Input stream #1:0 (video): 1 packets read (111578 bytes); 1 frames decoded; 
  Total: 1 packets (111578 bytes) demuxed
Input file #2 (/var/www/html/project/static/images/templates/Codino.mp4):
  Input stream #2:0 (audio): 89 packets read (26579 bytes); 87 frames decoded (89024 samples); 
  Input stream #2:1 (video): 50 packets read (203365 bytes); 50 frames decoded; 
  Total: 139 packets (229944 bytes) demuxed
Output file #0 (/var/www/html/project/media/video/watermarks/Fermo_incendio_sterpaglie.mp4):
  Output stream #0:0 (video): 1413 frames encoded; 1413 packets muxed (40760895 bytes); 
  Output stream #0:1 (audio): 2436 frames encoded (2494336 samples); 2437 packets muxed (899356 bytes); 
  Total: 3850 packets (41660251 bytes) muxed
[AVIOContext @ 0x560e5694d600] Statistics: 2 seeks, 162 writeouts
[libx264 @ 0x560e5694ac80] frame I:10    Avg QP:15.45  size:133298
[libx264 @ 0x560e5694ac80] frame P:687   Avg QP:19.50  size: 45138
[libx264 @ 0x560e5694ac80] frame B:716   Avg QP:22.64  size: 11756
[libx264 @ 0x560e5694ac80] consecutive B-frames: 14.2% 53.1%  4.7% 28.0%
[libx264 @ 0x560e5694ac80] mb I  I16..4: 13.8% 11.1% 75.1%
[libx264 @ 0x560e5694ac80] mb P  I16..4:  3.8%  9.7%  6.4%  P16..4: 34.4% 19.9% 18.9%  0.0%  0.0%    skip: 6.9%
[libx264 @ 0x560e5694ac80] mb B  I16..4:  1.1%  1.9%  0.2%  B16..8: 27.1% 14.0%  3.3%  direct:12.4%  skip:40.0%  L0:34.4% L1:45.2% BI:20.5%
[libx264 @ 0x560e5694ac80] 8x8 transform intra:47.9% inter:54.5%
[libx264 @ 0x560e5694ac80] coded y,uvDC,uvAC intra: 66.1% 66.7% 21.8% inter: 32.9% 21.4% 1.8%
[libx264 @ 0x560e5694ac80] i16 v,h,dc,p: 39% 34% 16% 11%
[libx264 @ 0x560e5694ac80] i8 v,h,dc,ddl,ddr,vr,hd,vl,hu: 20% 36% 18%  3%  5%  4%  7%  3%  5%
[libx264 @ 0x560e5694ac80] i4 v,h,dc,ddl,ddr,vr,hd,vl,hu: 23% 24% 11%  6%  8%  7%  8%  7%  7%
[libx264 @ 0x560e5694ac80] i8c dc,h,v,p: 46% 29% 18%  7%
[libx264 @ 0x560e5694ac80] Weighted P-Frames: Y:9.5% UV:1.7%
[libx264 @ 0x560e5694ac80] kb/s:5765.23
[aac @ 0x560e5696edc0] Qavg: 1043.436
[AVIOContext @ 0x560e569113c0] Statistics: 95635699 bytes read, 2723 seeks
[AVIOContext @ 0x560e5697f2c0] Statistics: 111578 bytes read, 0 seeks
[AVIOContext @ 0x560e56978d40] Statistics: 1530915 bytes read, 42 seeks
